<svg xmlns="http://www.w3.org/2000/svg" width="12" height="10.5" viewBox="0 0 12 10.5"><path d="M10.875,32h-3A1.125,1.125,0,0,0,6.75,33.125v3A1.125,1.125,0,0,0,7.875,37.25H9.75v1.5a1.5,1.5,0,0,1-1.5,1.5H8.063a.561.561,0,0,0-.562.563v1.125a.561.561,0,0,0,.563.562H8.25A3.749,3.749,0,0,0,12,38.75V33.125A1.125,1.125,0,0,0,10.875,32Zm-6.75,0h-3A1.125,1.125,0,0,0,0,33.125v3A1.125,1.125,0,0,0,1.125,37.25H3v1.5a1.5,1.5,0,0,1-1.5,1.5H1.312a.561.561,0,0,0-.562.563v1.125a.561.561,0,0,0,.562.562H1.5a3.749,3.749,0,0,0,3.75-3.75V33.125A1.125,1.125,0,0,0,4.125,32Z" transform="translate(0 -32)" fill="#c6c9cd"/></svg>